PathFileType	4	(X/Y/Z)	/Users/itak/Documents/Research/Walk-IL/dataset/trc/00551_00009.trc
DataRate	CameraRate	NumFrames	NumMarkers	Units	OrigDataRate	OrigDataStartFrame	OrigNumFrames
100.000000	100.000000	4	53	mm	100.000000	366	489
Frame#	Time	RPSI			LPSI			L3			STRN			T10			C7			CLAV			RBAK			LBAK			LSHO			LUPA			LAEL			LAOL			LWTS			LWPS			LFRA			LIFD			LHPS			LHTS			RSHO			RUPA			RAEL			RAOL			RWTS			RWPS			RFRA			RIFD			RHTS			RHPS			RBHD			LFHD			RFHD			LBHD			LHIP			RHIP			RASI			LASI			LKNE			LTHI			LANK			LTIP			LTOE			LMT1			LMT5			LHEE			RKNE			RTHI			RANK			RTIP			RTOE			RMT1			RMT5			RHEE			
		X1	Y1	Z1	X2	Y2	Z2	X3	Y3	Z3	X4	Y4	Z4	X5	Y5	Z5	X6	Y6	Z6	X7	Y7	Z7	X8	Y8	Z8	X9	Y9	Z9	X10	Y10	Z10	X11	Y11	Z11	X12	Y12	Z12	X13	Y13	Z13	X14	Y14	Z14	X15	Y15	Z15	X16	Y16	Z16	X17	Y17	Z17	X18	Y18	Z18	X19	Y19	Z19	X20	Y20	Z20	X21	Y21	Z21	X22	Y22	Z22	X23	Y23	Z23	X24	Y24	Z24	X25	Y25	Z25	X26	Y26	Z26	X27	Y27	Z27	X28	Y28	Z28	X29	Y29	Z29	X30	Y30	Z30	X31	Y31	Z31	X32	Y32	Z32	X33	Y33	Z33	X34	Y34	Z34	X35	Y35	Z35	X36	Y36	Z36	X37	Y37	Z37	X38	Y38	Z38	X39	Y39	Z39	X40	Y40	Z40	X41	Y41	Z41	X42	Y42	Z42	X43	Y43	Z43	X44	Y44	Z44	X45	Y45	Z45	X46	Y46	Z46	X47	Y47	Z47	X48	Y48	Z48	X49	Y49	Z49	X50	Y50	Z50	X51	Y51	Z51	X52	Y52	Z52	X53	Y53	Z53	

367	3.66	1138.767822265625	1001.619934082031	304.7467346191406	1152.89306640625	998.244873046875	172.4512939453125	1145.291259765625	1088.441528320312	236.95068359375	1365.8203125	1290.869506835938	247.0912017822266	1129.592407226562	1214.004028320312	238.5784454345703	1157.01171875	1488.771850585938	262.5006713867188	1337.975219726562	1400.697387695312	248.1269378662109	1095.708374023438	1359.404907226562	345.4698486328125	1125.463623046875	1434.107788085938	171.0896148681641	1218.974853515625	1467.407104492188	89.02678680419922	1212.54296875	1341.338623046875	7.447427749633789	1239.385620117188	1120.113037109375	-14.94978809356689	1155.31884765625	1109.410888671875	39.38767623901367	1342.271728515625	879.1610717773438	28.16638565063477	1296.361328125	856.3327026367188	-42.54967880249023	1265.668090820312	1034.569946289062	-23.55431175231934	1340.773071289062	708.4403076171875	20.65475845336914	1305.640747070312	796.5321655273438	-35.18629837036133	1358.441040039062	801.9453125	7.64232063293457	1220.928100585938	1452.890869140625	415.9210815429688	1204.580078125	1386.732421875	481.5488586425781	1206.454711914062	1099.426513671875	528.6466674804688	1153.524536132812	1080.4267578125	497.5283508300781	1347.864013671875	881.6896362304688	506.5393981933594	1298.023315429688	862.144287109375	568.8740844726562	1217.076049804688	1044.825805664062	538.3307495117188	1361.957885742188	707.3728637695312	517.7662353515625	1375.23779296875	790.4309692382812	524.3294677734375	1315.448120117188	787.4794311523438	568.72314453125	1238.093505859375	1671.744018554688	336.6487426757812	1387.465942382812	1704.805297851562	195.1737670898438	1377.043579101562	1694.803833007812	339.802490234375	1257.203491210938	1681.24169921875	173.1854553222656	1298.7978515625	925.7177734375	61.21617126464844	1245.382934570312	932.3833618164062	438.9794616699219	1341.7060546875	961.3614501953125	394.1875305175781	1369.103515625	957.5540771484375	120.0824584960938	1451.020385742188	509.7632751464844	141.7166290283203	1400.507446289062	664.9614868164062	96.69721984863281	1428.055786132812	32.18788146972656	153.5651702880859	1429.65234375	252.3274993896484	141.3985137939453	1631.213989257812	41.19357299804688	235.4376220703125	1555.725463867188	47.00859451293945	261.4945068359375	1550.258544921875	33.49378204345703	151.6947021484375	1356.4619140625	38.43556594848633	202.0378112792969	1217.337890625	491.1138305664062	395.6862182617188	1263.153930664062	775.7408447265625	440.1536560058594	928.7841186523438	97.43125152587891	337.0797729492188	1156.999145507812	355.5335083007812	376.0631408691406	1132.906616210938	39.46618270874023	308.9583740234375	1080.695556640625	59.77227783203125	266.833251953125	1044.2646484375	41.99460220336914	363.984619140625	887.2796630859375	126.6574020385742	277.1841430664062	
368	3.67	1145.358520507812	1001.988891601562	302.8295593261719	1160.601196289062	999.235595703125	170.6359252929688	1152.297729492188	1089.212158203125	235.257080078125	1372.45458984375	1291.767333984375	246.7475280761719	1136.769287109375	1214.697265625	237.0826110839844	1163.364379882812	1489.444702148438	261.3496398925781	1344.489624023438	1401.568237304688	247.6846923828125	1101.9482421875	1360.024536132812	344.2125244140625	1132.23486328125	1434.707641601562	169.7917022705078	1226.013427734375	1468.136352539062	88.14993286132812	1220.488403320312	1342.101928710938	6.403111934661865	1248.873657226562	1120.995361328125	-15.92412757873535	1164.642822265625	1109.639282226562	38.13881683349609	1353.336547851562	880.84033203125	27.44467163085938	1307.824340820312	857.6804809570312	-43.37217712402344	1275.7802734375	1035.642822265625	-24.44647789001465	1353.28662109375	710.119384765625	19.83963584899902	1317.59375	797.9852905273438	-36.08800506591797	1370.209106445312	803.7979736328125	6.963215351104736	1226.860717773438	1453.63134765625	415.0292358398438	1210.414428710938	1387.500610351562	480.6002502441406	1212.182861328125	1100.156005859375	527.5006103515625	1159.322387695312	1081.212280273438	496.2161865234375	1353.480102539062	882.25927734375	505.5129089355469	1303.525634765625	862.7100830078125	567.7916870117188	1222.705200195312	1045.472534179688	537.1866455078125	1367.068115234375	707.8439331054688	516.2811889648438	1380.570434570312	790.834228515625	523.05712890625	1320.7421875	787.9500732421875	567.385498046875	1244.131591796875	1672.533081054688	335.8065795898438	1393.662719726562	1705.681274414062	194.5308685302734	1383.076293945312	1695.768432617188	339.17431640625	1263.478637695312	1681.922973632812	172.3529815673828	1306.343017578125	926.7250366210938	60.46409606933594	1252.169067382812	932.5277709960938	437.0604858398438	1348.099975585938	962.0879516601562	393.3864135742188	1376.677734375	958.5081787109375	119.3460006713867	1454.764770507812	509.3541259765625	141.5295257568359	1405.905151367188	665.0257568359375	96.12258911132812	1428.235595703125	32.33647155761719	153.6420593261719	1431.480346679688	252.1466217041016	141.5745239257812	1631.441162109375	40.61452865600586	235.9659271240234	1555.78466796875	46.68703460693359	261.9349975585938	1550.388427734375	33.64045333862305	151.8778228759766	1356.6796875	38.63236999511719	201.9358673095703	1229.128662109375	490.7521057128906	398.0020751953125	1269.425903320312	776.6948852539062	440.1524353027344	932.451416015625	103.1779708862305	338.0158386230469	1166.623779296875	356.3389587402344	378.35986328125	1133.572875976562	39.36228179931641	309.3104553222656	1082.48046875	61.17375564575195	267.0719604492188	1046.045288085938	43.47956848144531	364.0849609375	892.4154663085938	134.2362213134766	278.1780090332031	
369	3.68	1151.765869140625	1002.243835449219	300.9956665039062	1167.970825195312	1000.177062988281	168.9124755859375	1159.115600585938	1089.920166015625	233.6762084960938	1378.920532226562	1292.573120117188	246.4522247314453	1143.695190429688	1215.317626953125	235.5803375244141	1169.608642578125	1490.075805664062	260.2217407226562	1350.873168945312	1402.3505859375	247.3091430664062	1108.016723632812	1360.564697265625	342.8690490722656	1138.904296875	1435.298461914062	168.4939880371094	1233.01708984375	1468.84912109375	87.30321502685547	1228.430053710938	1342.849853515625	5.398366928100586	1258.383666992188	1121.888916015625	-16.91032218933105	1173.943969726562	1109.854370117188	36.80675506591797	1364.396484375	882.5593872070312	26.77628517150879	1319.354248046875	859.0703735351562	-44.18611907958984	1285.917724609375	1036.735229492188	-25.33151817321777	1365.897216796875	711.8567504882812	19.04581832885742	1329.647705078125	799.4891357421875	-36.99463272094727	1382.028564453125	805.7192993164062	6.336685180664062	1232.576416015625	1454.260009765625	414.1721801757812	1216.011840820312	1388.14599609375	479.6590881347656	1217.817749023438	1100.784545898438	526.44580078125	1165.012451171875	1081.849487304688	495.038330078125	1359.182495117188	882.8690185546875	504.4483032226562	1309.204956054688	863.2655639648438	566.7271118164062	1228.299560546875	1046.039428710938	536.1220703125	1372.465087890625	708.3860473632812	514.7581787109375	1386.104248046875	791.3203735351562	521.7467651367188	1326.295654296875	788.4495239257812	566.0752563476562	1250.106079101562	1673.287109375	335.007080078125	1399.798095703125	1706.462768554688	193.9202423095703	1389.039916992188	1696.666625976562	338.5795288085938	1269.687133789062	1682.538696289062	171.5529327392578	1313.600219726562	927.6634521484375	59.78643035888672	1258.710083007812	932.5961303710938	435.2731323242188	1354.23974609375	962.8204345703125	392.5950622558594	1383.964965820312	959.3934936523438	118.6836853027344	1458.266235351562	508.9687805175781	141.2394866943359	1411.074462890625	665.1323852539062	95.60038757324219	1428.370727539062	32.3818244934082	153.7228698730469	1433.157836914062	251.9564514160156	141.6797943115234	1631.612426757812	40.21395874023438	236.3793029785156	1555.816040039062	46.40620040893555	262.255859375	1550.493041992188	33.72771835327148	152.0396575927734	1356.857299804688	38.80995559692383	201.8100128173828	1241.07666015625	490.3987121582031	400.3005981445312	1275.672241210938	777.6278686523438	440.1023559570312	936.5738525390625	109.2072448730469	339.0123596191406	1176.543090820312	357.1575927734375	380.590576171875	1134.612060546875	39.28465270996094	309.8588256835938	1084.61865234375	62.68567276000977	267.4730834960938	1048.162353515625	45.37923049926758	364.3341369628906	898.0281982421875	141.9404449462891	279.2378234863281	
370	3.69	1158.004516601562	1002.398681640625	299.2962951660156	1174.989990234375	1001.070739746094	167.3149108886719	1165.760620117188	1090.57470703125	232.2510528564453	1385.211791992188	1293.295654296875	246.1996612548828	1150.32763671875	1215.865966796875	234.1346130371094	1175.73291015625	1490.670776367188	259.1247863769531	1357.115600585938	1403.055053710938	246.9992370605469	1113.9140625	1361.035888671875	341.44677734375	1145.46337890625	1435.89111328125	167.1983489990234	1239.97412109375	1469.557495117188	86.49118804931641	1236.365234375	1343.599243164062	4.434980392456055	1267.907104492188	1122.809936523438	-17.89682960510254	1183.21044921875	1110.075805664062	35.38938140869141	1375.438354492188	884.326904296875	26.17135047912598	1330.946044921875	860.5209350585938	-44.99248886108398	1296.072998046875	1037.864379882812	-26.19757652282715	1378.562133789062	713.6624145507812	18.2807445526123	1341.783447265625	801.055908203125	-37.89485168457031	1393.875122070312	807.7116088867188	5.770771503448486	1238.07763671875	1454.79248046875	413.3523559570312	1221.371704101562	1388.676391601562	478.7296447753906	1223.3349609375	1101.315185546875	525.46337890625	1170.581665039062	1082.343994140625	493.9597473144531	1364.9599609375	883.5298461914062	503.3804016113281	1315.017822265625	863.816162109375	565.6788940429688	1233.831909179688	1046.535034179688	535.1233520507812	1378.158569335938	709.0155639648438	513.268310546875	1391.833740234375	791.906982421875	520.4547729492188	1332.079833984375	788.9873046875	564.8131103515625	1256.01123046875	1674.010986328125	334.2501220703125	1405.868896484375	1707.158935546875	193.3437042236328	1394.929809570312	1697.500366210938	338.0187683105469	1275.82177734375	1683.100952148438	170.7884063720703	1320.548950195312	928.5359497070312	59.17273712158203	1264.991577148438	932.612548828125	433.6720275878906	1360.144409179688	963.5538330078125	391.8099670410156	1390.943969726562	960.212890625	118.0857391357422	1461.573364257812	508.6181030273438	140.8659515380859	1416.050659179688	665.2926025390625	95.14978790283203	1428.465698242188	32.33667373657227	153.8135681152344	1434.720581054688	251.7729949951172	141.7077789306641	1631.745239257812	39.95282363891602	236.6851959228516	1555.838623046875	46.17034530639648	262.4732360839844	1550.577270507812	33.77461624145508	152.1695251464844	1356.981201171875	38.95648956298828	201.6854400634766	1253.126831054688	490.0919799804688	402.48291015625	1281.936889648438	778.5231323242188	439.9911804199219	941.187744140625	115.4318008422852	340.0129089355469	1186.74853515625	357.9589538574219	382.6558227539062	1136.215209960938	39.27172470092773	310.7097473144531	1087.2763671875	64.35910797119141	268.0941772460938	1050.70166015625	47.74207305908203	364.7873229980469	904.1026611328125	149.6243133544922	280.2884216308594	
